# xmcd CD Database Entry
#
# Track frame offsets:
# 183
# 17790
# 38270
# 68123
# 105058
# 139633
# 149598
# 167993
# 186683
# 215583
# 232553
# 249893
#
# Disc length: 3557 seconds
#
# Revision: 1
# Processed by: cddbd v1.4b41PL1 Copyright (c) Steve Scherf et al.
# Submitted via: tcd 2.0b
#
DISCID=9b0de30c
DTITLE=Leonard Cohen - At The Beeb
DYEAR=1900
DGENRE=
TTITLE0=You Know Who I Am
TTITLE1=Bird On The Wire
TTITLE2=The Stranger
TTITLE3=So Long Marianne
TTITLE4=The Master Song
TTITLE5=There's No Reason Why You Should Remember Me
TTITLE6=Sisters Of Mercy
TTITLE7=The Teacher
TTITLE8=Dress Rehearsal Rag
TTITLE9=Suzanne
TTITLE10=Hey That's No Way To Say Goodbye
TTITLE11=The Story of Isaac
EXTD=
EXTT0=
EXTT1=
EXTT2=
EXTT3=
EXTT4=
EXTT5=
EXTT6=
EXTT7=
EXTT8=
EXTT9=
EXTT10=
EXTT11=
PLAYORDER=
